<?xml version="1.0" encoding="UTF-8"?>
<svg id="Layer_1" xmlns="http://www.w3.org/2000/svg" version="1.1" viewBox="0 0 64 64">
  <!-- Generator: Adobe Illustrator 30.1.0, SVG Export Plug-In . SVG Version: 2.1.1 Build 136)  -->
  <defs>
    <style>
      .st0 {
        fill: #fff;
      }

      .st1 {
        fill: #1a833b;
      }

      .st2 {
        fill: #00509c;
      }
    </style>
  </defs>
  <g>
    <rect class="st0" x="17.8" y="11.1" width="26.6" height="18.4"/>
    <path class="st1" d="M42.3,0h-22.5c-1.1,0-2,.9-2,2v13.8c1.8-1.4,4-3.2,8-2.2,3.4.8,4.2,3.5,9.6,6.5,3.3,1.8,6.5.4,9-1.1V2c0-1.1-.9-2-2-2"/>
    <path class="st2" d="M37.1,26.3c-1-.1-2-.5-2.8-1.1-1.9-1.2-3.7-3.1-7.6-5.1-3.1-1.5-6.1-.4-8.9,1.2h0v15.5c0,1.1.9,2,2,2h22.5c1.1,0,2-.9,2-2v-12.6c-2.4,1.4-4.7,2.5-7.3,2.1"/>
  </g>
  <rect class="st0" x="72.7" y="33" width="1.9" height="2"/>
  <g>
    <path d="M12.5,53.2l-2.8,3.7v6.2h-1.7v-18.2h1.7v9.7l7.3-9.7h1.8l-5.1,6.9,5.2,11.3h-1.8l-4.6-9.9Z"/>
    <path d="M29.2,59.1h-6.2l-1,4h-1.6l4.6-18.2h2.2l4.7,18.2h-1.7l-1-4ZM28.9,57.6l-2.8-10.7-2.7,10.7h5.4Z"/>
    <path d="M34.5,44.9h4.8c3.4,0,5.1,1.4,5.1,4.4v.4c0,2.4-.9,3.8-2.9,4.2h0c2.1.4,2.9,1.7,2.9,4.3v2.3c0,.9,0,1.8.3,2.5h-1.7c-.2-.6-.3-1.3-.3-2.5v-2.4c0-2.4-1-3.3-3.7-3.3h-2.8v8.2h-1.7v-18.2ZM39,53.4c2.6,0,3.8-1,3.8-3.3v-.4c0-2.4-1-3.3-3.4-3.3h-3.1v7h2.8Z"/>
    <path d="M51,46.4h-4.3v-1.5h10.4v1.5h-4.4v16.7h-1.7v-16.7Z"/>
  </g>
</svg>